<svg width="392" height="261" viewBox="0 0 392 261" fill="none" xmlns="http://www.w3.org/2000/svg">
<rect width="392" height="261" fill="#F3F2EE"/>
<g clip-path="url(#clip0_11905_215968)">
<path d="M114.391 123.508C114.255 123.779 114.051 123.982 113.847 124.185C113.643 124.32 113.371 124.388 113.099 124.388C112.759 124.388 112.487 124.32 112.215 124.117C111.875 123.914 111.535 123.779 111.127 123.508C110.651 123.305 110.243 123.102 109.768 122.899C109.224 122.696 108.612 122.628 108 122.628C107.048 122.56 106.164 122.831 105.416 123.372C104.872 123.846 104.532 124.591 104.6 125.335C104.6 125.809 104.736 126.283 105.144 126.689C105.552 127.095 105.96 127.366 106.504 127.569C107.116 127.84 107.728 128.11 108.408 128.246C109.088 128.449 109.835 128.72 110.583 128.923C111.331 129.193 112.079 129.464 112.759 129.87C113.439 130.209 114.119 130.682 114.663 131.224C115.207 131.765 115.683 132.442 116.023 133.187C116.363 134.067 116.566 135.014 116.566 136.029C116.566 137.18 116.363 138.331 115.955 139.481C115.547 140.497 114.935 141.444 114.119 142.256C113.235 143.069 112.215 143.746 111.127 144.152C109.835 144.625 108.476 144.829 107.116 144.829C106.3 144.829 105.416 144.761 104.6 144.558C103.784 144.422 102.901 144.152 102.085 143.813C101.269 143.543 100.521 143.136 99.841 142.73C99.1611 142.324 98.5492 141.85 98.0052 141.309L99.841 138.466C99.977 138.263 100.181 138.06 100.385 137.925C100.657 137.789 100.861 137.722 101.201 137.722C101.609 137.722 101.949 137.857 102.289 138.06C102.629 138.263 103.104 138.534 103.512 138.805C104.056 139.075 104.532 139.346 105.144 139.549C105.824 139.82 106.572 139.888 107.32 139.888C108.272 139.955 109.156 139.684 109.903 139.143C110.583 138.534 110.923 137.722 110.855 136.842C110.855 136.3 110.719 135.759 110.311 135.353C109.971 134.947 109.496 134.608 108.952 134.405C108.34 134.134 107.728 133.931 107.048 133.728C106.368 133.525 105.62 133.322 104.872 133.119C104.124 132.848 103.376 132.578 102.697 132.239C102.017 131.901 101.337 131.427 100.793 130.885C100.181 130.276 99.773 129.532 99.433 128.787C99.0931 127.772 98.8891 126.757 98.8891 125.674C98.8891 124.658 99.0931 123.711 99.501 122.763C99.909 121.816 100.521 120.936 101.269 120.259C102.085 119.514 103.037 118.905 104.124 118.499C105.348 118.025 106.708 117.822 108 117.822C108.816 117.822 109.564 117.89 110.379 118.025C111.127 118.161 111.875 118.364 112.555 118.567C113.235 118.838 113.847 119.108 114.527 119.447C115.139 119.785 115.615 120.191 116.159 120.597L114.391 123.508Z" fill="#222221"/>
<path d="M132.131 144.552C131.723 144.552 131.315 144.484 130.975 144.349C130.635 144.146 130.431 143.808 130.295 143.469L129.887 142.454C129.411 142.86 129.003 143.198 128.595 143.469C128.187 143.74 127.711 144.011 127.303 144.214C126.827 144.417 126.351 144.552 125.876 144.687C125.332 144.823 124.72 144.823 124.176 144.823C123.428 144.823 122.612 144.755 121.864 144.484C121.252 144.281 120.64 143.943 120.096 143.537C119.62 143.131 119.212 142.589 119.009 141.98C118.737 141.303 118.601 140.559 118.601 139.814C118.601 139.137 118.805 138.46 119.077 137.851C119.484 137.107 120.096 136.43 120.776 135.956C121.796 135.279 122.884 134.805 124.04 134.535C125.74 134.129 127.507 133.926 129.275 133.993V133.181C129.343 132.369 129.139 131.489 128.595 130.812C128.119 130.338 127.439 130.068 126.691 130.068C126.147 130.068 125.604 130.135 125.128 130.271C124.72 130.406 124.38 130.541 124.04 130.744C123.7 130.947 123.428 131.083 123.088 131.218C122.748 131.354 122.34 131.421 122 131.421C121.66 131.421 121.32 131.354 121.048 131.151C120.776 130.947 120.572 130.744 120.436 130.474L119.416 128.782C120.504 127.834 121.728 127.089 123.088 126.616C124.516 126.142 125.943 125.871 127.439 125.871C128.459 125.871 129.479 126.006 130.431 126.413C131.315 126.751 132.063 127.225 132.674 127.902C133.286 128.578 133.762 129.323 134.102 130.203C134.442 131.151 134.578 132.098 134.578 133.113V144.484H132.131V144.552ZM125.808 141.236C126.419 141.236 127.099 141.1 127.643 140.897C128.255 140.626 128.799 140.22 129.275 139.679V137.174C128.391 137.174 127.439 137.242 126.555 137.378C125.943 137.445 125.4 137.648 124.856 137.919C124.516 138.054 124.176 138.325 123.972 138.664C123.836 138.934 123.7 139.205 123.7 139.543C123.632 140.017 123.836 140.559 124.244 140.897C124.72 141.168 125.264 141.303 125.808 141.236Z" fill="#222221"/>
<path d="M148.174 144.552H143.211L136.072 126.277H140.627C140.967 126.277 141.307 126.345 141.579 126.548C141.851 126.683 141.987 126.954 142.123 127.225L144.638 135.415C144.842 136.092 145.046 136.701 145.182 137.378C145.318 138.055 145.522 138.664 145.658 139.273C145.794 138.664 145.93 137.987 146.134 137.378C146.338 136.768 146.542 136.092 146.746 135.415L149.398 127.225C149.466 126.954 149.67 126.683 149.942 126.548C150.213 126.345 150.553 126.277 150.893 126.277H155.245L148.174 144.552Z" fill="#222221"/>
<path d="M164.983 126.011C166.138 126.011 167.226 126.214 168.314 126.552C169.266 126.891 170.15 127.432 170.898 128.177C171.646 128.921 172.258 129.801 172.598 130.816C173.005 131.967 173.209 133.118 173.209 134.336C173.209 134.674 173.209 135.013 173.141 135.351C173.141 135.554 173.073 135.757 172.937 135.96C172.869 136.096 172.734 136.231 172.53 136.299C172.326 136.367 172.122 136.367 171.918 136.367H161.311C161.379 137.585 161.855 138.803 162.739 139.683C163.555 140.36 164.575 140.766 165.663 140.698C166.206 140.698 166.75 140.631 167.294 140.495C167.702 140.36 168.11 140.157 168.518 139.954C168.858 139.751 169.198 139.615 169.538 139.412C169.81 139.277 170.15 139.209 170.49 139.209C170.898 139.209 171.238 139.345 171.51 139.683L173.073 141.646C172.53 142.255 171.918 142.797 171.238 143.203C170.626 143.609 169.946 143.947 169.198 144.15C168.518 144.353 167.838 144.556 167.158 144.624C166.478 144.692 165.867 144.759 165.187 144.759C163.963 144.759 162.739 144.556 161.583 144.15C160.495 143.744 159.475 143.135 158.66 142.323C157.776 141.443 157.096 140.428 156.688 139.277C156.144 137.923 155.94 136.502 155.94 135.013C155.94 133.862 156.144 132.644 156.552 131.561C157.368 129.395 159.068 127.635 161.175 126.755C162.399 126.281 163.691 126.011 164.983 126.011ZM165.119 129.801C164.235 129.733 163.351 130.072 162.671 130.681C161.991 131.426 161.583 132.305 161.515 133.253H168.382C168.382 132.847 168.314 132.373 168.246 131.967C168.11 131.561 167.974 131.222 167.702 130.884C167.43 130.546 167.09 130.275 166.682 130.072C166.138 129.869 165.595 129.801 165.119 129.801Z" fill="#222221"/>
<path d="M190.14 144.83C189.324 144.83 188.576 144.695 187.828 144.424C186.536 143.951 185.516 142.935 185.108 141.649C184.836 140.972 184.768 140.228 184.768 139.483V130.075H183.205C182.661 130.075 182.185 129.669 182.185 129.128V126.894L185.108 126.353L186.196 121.885C186.332 121.344 186.808 120.938 187.42 121.073H190.276V126.42H194.763V130.143H190.276V139.213C190.276 139.619 190.344 139.957 190.615 140.228C190.819 140.499 191.159 140.634 191.499 140.634C191.703 140.634 191.839 140.634 191.975 140.566C192.111 140.499 192.247 140.499 192.315 140.431C192.383 140.363 192.519 140.363 192.587 140.296C192.655 140.228 192.791 140.228 192.927 140.228C193.063 140.228 193.199 140.228 193.335 140.363L193.675 140.702L195.307 143.274C194.559 143.815 193.811 144.221 192.927 144.492C192.043 144.695 191.091 144.83 190.14 144.83Z" fill="#222221"/>
<path d="M197.819 144.558V118.229H203.327V127.907C204.006 127.366 204.686 126.892 205.502 126.554C206.386 126.215 207.338 126.012 208.29 126.012C209.174 126.012 210.126 126.148 210.941 126.554C211.689 126.892 212.369 127.366 212.913 127.975C213.457 128.652 213.865 129.397 214.137 130.141C214.409 131.021 214.545 131.969 214.545 132.916V144.49H209.038V132.984C209.106 132.239 208.834 131.495 208.426 130.886C207.95 130.344 207.27 130.073 206.59 130.141C205.978 130.141 205.434 130.276 204.89 130.547C204.346 130.818 203.802 131.156 203.395 131.562V144.558H197.819Z" fill="#222221"/>
<path d="M226.305 126.011C227.461 126.011 228.549 126.214 229.637 126.552C230.589 126.891 231.473 127.432 232.221 128.177C232.968 128.921 233.58 129.801 233.92 130.816C234.328 131.967 234.532 133.118 234.532 134.336C234.532 134.674 234.532 135.013 234.464 135.351C234.464 135.554 234.396 135.757 234.26 135.96C234.192 136.096 234.056 136.231 233.852 136.299C233.648 136.367 233.444 136.367 233.24 136.367H222.702C222.77 137.585 223.246 138.803 224.13 139.683C224.946 140.36 225.965 140.766 227.053 140.698C227.597 140.698 228.141 140.631 228.685 140.495C229.093 140.36 229.501 140.157 229.909 139.954C230.249 139.751 230.589 139.615 230.929 139.412C231.201 139.277 231.541 139.209 231.881 139.209C232.288 139.209 232.628 139.345 232.9 139.683L234.464 141.646C233.92 142.255 233.308 142.797 232.628 143.203C232.017 143.609 231.337 143.947 230.589 144.15C229.909 144.353 229.229 144.556 228.549 144.624C227.869 144.692 227.257 144.759 226.577 144.759C225.354 144.759 224.13 144.556 222.974 144.15C221.886 143.744 220.866 143.135 220.05 142.323C219.166 141.443 218.487 140.428 218.079 139.277C217.535 137.923 217.331 136.502 217.331 135.013C217.331 133.862 217.535 132.644 217.943 131.561C218.759 129.395 220.458 127.635 222.566 126.755C223.722 126.281 225.014 126.011 226.305 126.011ZM226.441 129.801C225.557 129.733 224.674 130.072 223.994 130.681C223.314 131.426 222.906 132.305 222.838 133.253H229.705C229.705 132.847 229.637 132.373 229.569 131.967C229.433 131.561 229.297 131.222 229.025 130.884C228.753 130.546 228.413 130.275 228.005 130.072C227.461 129.869 226.985 129.801 226.441 129.801Z" fill="#222221"/>
<path d="M263.148 137.73C263.284 137.73 263.42 137.73 263.556 137.798C263.692 137.865 263.828 137.933 263.964 138.069L266.412 140.641C265.392 141.994 263.964 143.077 262.4 143.754C260.564 144.499 258.661 144.837 256.689 144.837C254.853 144.837 253.018 144.499 251.25 143.822C249.686 143.145 248.326 142.197 247.17 140.979C246.015 139.761 245.199 138.272 244.587 136.715C243.975 134.955 243.703 133.195 243.703 131.368C243.703 129.54 244.043 127.645 244.723 125.953C245.403 124.328 246.355 122.907 247.578 121.689C248.802 120.47 250.298 119.523 251.93 118.914C253.697 118.237 255.601 117.898 257.573 117.898C258.525 117.898 259.477 117.966 260.36 118.169C261.176 118.305 262.06 118.575 262.808 118.914C263.556 119.184 264.236 119.591 264.916 119.997C265.528 120.403 266.14 120.877 266.616 121.418L264.508 124.193C264.372 124.396 264.236 124.532 264.032 124.667C263.828 124.802 263.556 124.87 263.284 124.87C263.08 124.87 262.876 124.802 262.672 124.735C262.468 124.599 262.264 124.532 262.06 124.396C261.856 124.261 261.584 124.125 261.312 123.922C261.04 123.719 260.7 123.584 260.36 123.449C259.953 123.313 259.545 123.178 259.137 123.11C258.593 122.975 258.049 122.975 257.437 122.975C256.417 122.975 255.329 123.178 254.377 123.584C253.493 123.99 252.678 124.532 251.998 125.276C251.318 126.021 250.774 126.968 250.434 127.916C250.026 129.066 249.89 130.217 249.89 131.435C249.89 132.654 250.026 133.872 250.434 135.023C250.774 135.97 251.25 136.918 251.93 137.662C252.542 138.339 253.29 138.948 254.173 139.287C255.057 139.693 255.941 139.828 256.893 139.828C257.437 139.828 257.913 139.828 258.389 139.761C258.797 139.693 259.273 139.625 259.681 139.49C260.089 139.355 260.428 139.151 260.836 138.948C261.244 138.745 261.584 138.475 261.924 138.136C262.06 138.001 262.196 137.933 262.4 137.865C262.74 137.798 262.944 137.73 263.148 137.73Z" fill="#222221"/>
<path d="M269.208 144.558V118.229H274.715V127.907C275.395 127.366 276.075 126.892 276.891 126.554C277.775 126.215 278.727 126.012 279.678 126.012C280.562 126.012 281.514 126.148 282.33 126.554C283.078 126.892 283.758 127.366 284.302 127.975C284.846 128.652 285.254 129.397 285.526 130.141C285.798 131.021 285.934 131.969 285.934 132.916V144.49H280.426V132.984C280.494 132.239 280.222 131.495 279.814 130.886C279.339 130.344 278.659 130.073 277.979 130.141C277.367 130.141 276.823 130.276 276.279 130.547C275.735 130.818 275.191 131.156 274.783 131.562V144.558H269.208Z" fill="#222221"/>
<path d="M296.335 121.334C296.335 121.74 296.267 122.146 296.063 122.552C295.859 122.958 295.655 123.296 295.315 123.567C294.975 123.838 294.635 124.109 294.227 124.244C293.819 124.447 293.343 124.515 292.935 124.515C292.527 124.515 292.051 124.447 291.711 124.244C291.303 124.109 290.963 123.838 290.691 123.567C290.419 123.296 290.148 122.958 290.012 122.552C289.808 122.146 289.74 121.74 289.74 121.334C289.74 120.927 289.808 120.454 290.012 120.115C290.148 119.709 290.419 119.371 290.691 119.1C290.963 118.829 291.371 118.558 291.711 118.423C292.119 118.288 292.527 118.152 292.935 118.152C293.411 118.152 293.819 118.22 294.227 118.423C295.043 118.762 295.655 119.371 295.995 120.115C296.267 120.454 296.335 120.86 296.335 121.334ZM295.723 126.342V144.617H290.216V126.342H295.723Z" fill="#222221"/>
<path d="M306.188 118.229V144.558H300.681V118.229H306.188Z" fill="#222221"/>
<path d="M323.669 144.558C323.397 144.558 323.058 144.49 322.786 144.355C322.514 144.219 322.378 143.949 322.31 143.678L321.902 142.257C321.562 142.663 321.154 143.001 320.746 143.34C320.338 143.678 319.93 143.949 319.454 144.152C318.978 144.355 318.502 144.558 317.958 144.693C317.414 144.829 316.802 144.896 316.191 144.896C315.239 144.896 314.355 144.693 313.539 144.287C312.723 143.881 311.975 143.204 311.431 142.46C310.819 141.58 310.343 140.565 310.071 139.549C309.732 138.263 309.528 136.91 309.596 135.624C309.596 134.338 309.8 133.051 310.139 131.833C310.479 130.75 311.023 129.735 311.771 128.787C312.451 127.975 313.267 127.298 314.287 126.757C315.307 126.283 316.395 126.012 317.482 126.012C318.298 126.012 319.114 126.148 319.862 126.418C320.474 126.689 321.086 127.028 321.63 127.501V118.229H327.137V144.558H323.669ZM318.094 140.7C318.434 140.7 318.842 140.632 319.182 140.565C319.522 140.497 319.794 140.361 320.066 140.226C320.338 140.091 320.61 139.888 320.814 139.685C321.086 139.482 321.29 139.211 321.562 138.94V131.224C321.222 130.818 320.746 130.479 320.202 130.276C319.726 130.073 319.182 130.006 318.706 130.006C318.23 130.006 317.754 130.073 317.278 130.276C316.802 130.479 316.463 130.818 316.191 131.224C315.851 131.765 315.579 132.307 315.443 132.916C315.239 133.728 315.171 134.608 315.171 135.488C315.171 136.3 315.239 137.113 315.375 137.925C315.511 138.466 315.647 139.008 315.987 139.549C316.191 139.888 316.531 140.226 316.87 140.429C317.278 140.565 317.686 140.7 318.094 140.7Z" fill="#222221"/>
<path d="M331.415 144.546V126.271H334.678C334.882 126.271 335.154 126.271 335.358 126.338C335.494 126.406 335.698 126.474 335.834 126.541C335.97 126.677 336.038 126.812 336.106 126.948C336.174 127.151 336.242 127.354 336.242 127.557L336.514 129.249C337.126 128.301 337.874 127.489 338.758 126.812C339.574 126.203 340.526 125.932 341.477 125.932C342.225 125.865 342.905 126.135 343.517 126.541L342.837 130.535C342.837 130.738 342.701 130.941 342.565 131.076C342.429 131.212 342.225 131.212 342.021 131.212C341.817 131.212 341.545 131.212 341.341 131.144C341.001 131.076 340.662 131.076 340.322 131.076C338.894 131.076 337.738 131.821 336.922 133.378V144.546H331.415Z" fill="#222221"/>
<path d="M353.512 126.011C354.668 126.011 355.756 126.214 356.843 126.552C357.795 126.891 358.679 127.432 359.427 128.177C360.175 128.921 360.787 129.801 361.127 130.816C361.535 131.967 361.739 133.118 361.739 134.336C361.739 134.674 361.739 135.013 361.671 135.351C361.671 135.554 361.603 135.757 361.467 135.96C361.399 136.096 361.263 136.231 361.059 136.299C360.855 136.367 360.651 136.367 360.447 136.367H349.908C349.976 137.585 350.452 138.803 351.336 139.683C352.152 140.36 353.172 140.766 354.26 140.698C354.804 140.698 355.348 140.631 355.892 140.495C356.299 140.36 356.707 140.157 357.115 139.954C357.455 139.751 357.795 139.615 358.135 139.412C358.407 139.277 358.747 139.209 359.087 139.209C359.495 139.209 359.835 139.345 360.107 139.683L361.671 141.646C361.127 142.255 360.515 142.797 359.835 143.203C359.223 143.609 358.543 143.947 357.795 144.15C357.115 144.353 356.435 144.556 355.756 144.624C355.076 144.692 354.464 144.759 353.784 144.759C352.56 144.759 351.336 144.556 350.18 144.15C349.093 143.744 348.073 143.135 347.257 142.323C346.373 141.443 345.693 140.428 345.285 139.277C344.741 137.923 344.537 136.502 344.537 135.013C344.537 133.862 344.741 132.644 345.149 131.561C345.965 129.395 347.665 127.635 349.772 126.755C350.928 126.281 352.22 126.011 353.512 126.011ZM353.648 129.801C352.764 129.733 351.88 130.072 351.2 130.681C350.52 131.426 350.112 132.305 350.044 133.253H356.843C356.843 132.847 356.775 132.373 356.707 131.967C356.571 131.561 356.435 131.222 356.164 130.884C355.892 130.546 355.552 130.275 355.144 130.072C354.668 129.869 354.124 129.801 353.648 129.801Z" fill="#222221"/>
<path d="M365.273 144.562V126.287H368.672C368.944 126.287 369.284 126.355 369.556 126.49C369.828 126.625 369.964 126.896 370.032 127.167L370.372 128.25C370.712 127.911 371.12 127.641 371.46 127.302C371.868 127.031 372.276 126.761 372.684 126.558C373.16 126.355 373.568 126.219 374.112 126.084C374.655 125.948 375.199 125.881 375.743 125.948C376.627 125.948 377.579 126.084 378.395 126.49C379.143 126.828 379.823 127.302 380.367 127.911C380.911 128.588 381.318 129.333 381.59 130.077C381.862 130.957 381.998 131.905 381.998 132.852V144.426H376.491V132.988C376.559 132.243 376.287 131.499 375.879 130.889C375.403 130.348 374.723 130.077 374.044 130.145C373.432 130.145 372.888 130.28 372.344 130.551C371.8 130.822 371.256 131.16 370.848 131.566V144.562H365.273Z" fill="#222221"/>
<path d="M78.3592 111.183C81.6227 107.393 83.0505 105.633 82.7106 104.618C82.3026 103.738 81.4867 103.061 80.6029 102.858C79.3791 102.384 77.6793 102.181 76.8634 102.655C76.1835 103.197 75.5716 103.874 75.0277 104.55L74.0079 105.701C73.328 105.024 72.6481 104.347 71.9682 103.806C67.0049 99.474 60.8858 96.6989 54.3588 95.6836C51.7072 92.9086 48.3077 91.6225 44.9082 92.0963C41.9846 92.5701 39.401 94.3299 37.8372 96.8343C31.1062 98.8648 25.1231 102.655 20.3638 107.867C19.276 107.528 16.9643 107.935 15.4685 108.747C14.7886 109.018 14.2447 109.627 14.0408 110.304C13.9728 110.777 14.1767 111.454 15.9445 113.552C11.2532 120.93 9.28146 129.661 10.2333 138.325C11.2532 146.989 15.4006 154.976 21.9956 160.729C24.3072 162.759 26.8908 164.451 29.6104 165.737C42.3925 171.897 57.3503 171.355 69.6565 164.316C70.6764 163.707 71.0163 162.489 70.5404 161.473L70.4044 161.135C68.3647 156.668 62.2456 142.928 65.6451 130.474C67.0729 125.262 71.2203 119.712 74.7557 115.312C78.5632 121.133 80.4669 128.037 80.1949 135.009C79.991 141.371 77.8153 147.53 73.9399 152.607C73.7359 152.81 73.7359 153.08 73.8039 153.351L74.2118 154.231C74.4158 154.569 74.8237 154.772 75.1637 154.569C75.2997 154.502 75.3677 154.434 75.4356 154.366C85.5661 141.777 86.79 124.247 78.3592 111.183ZM33.8258 140.694C32.466 147.53 32.1941 154.569 32.942 161.541C30.3583 160.255 27.9107 158.563 25.667 156.668C19.6839 151.524 15.6725 144.484 14.2447 136.701C12.8849 129.458 14.1087 121.945 17.7122 115.515C19.072 116.937 20.7038 118.561 22.4035 120.186C26.5509 124.314 31.3102 128.985 33.6219 132.301C34.9816 134.196 34.5737 136.633 33.8258 140.694ZM70.2004 109.762C62.5176 117.478 55.2426 121.675 48.6476 122.148C43.5484 122.555 38.1772 120.998 32.67 117.681C28.9985 115.38 25.531 112.673 22.4715 109.627L22.2675 109.424C26.075 105.363 30.8343 102.452 36.2055 100.828C35.6615 102.994 35.5256 105.16 35.8655 107.393C36.4094 111.251 38.4491 114.703 41.5087 117.072C45.86 120.456 52.1151 119.644 55.5146 115.38C55.6506 115.177 55.7866 115.042 55.9225 114.838C58.1662 111.657 58.9821 107.732 58.3702 103.874C58.2342 103.129 58.0982 102.384 57.8943 101.708C61.7697 103.197 65.3731 105.295 68.4327 108.07C68.9766 108.544 69.5885 109.085 70.2004 109.762Z" fill="#DA291C"/>
</g>
<defs>
<clipPath id="clip0_11905_215968">
<rect width="372" height="78" fill="white" transform="translate(10 92)"/>
</clipPath>
</defs>
</svg>
